<svg viewBox="0 0 1200 600" xmlns="http://www.w3.org/2000/svg" style="background: linear-gradient(135deg, #f5f7fa 0%, #c3cfe2 100%);">
  <!-- Title -->
  <text x="600" y="30" font-size="32" font-weight="bold" text-anchor="middle" fill="#1a237e">
    Scrum Workflow: Spec-First AI Development
  </text>

  <!-- Left side: Scrum Team -->
  <g id="scrum-team">
    <!-- Product Owner -->
    <rect x="30" y="80" width="140" height="120" fill="#bbdefb" stroke="#1976d2" stroke-width="2" rx="8"/>
    <circle cx="100" cy="110" r="20" fill="#1976d2"/>
    <text x="100" y="160" font-size="14" font-weight="bold" text-anchor="middle" fill="#1a237e">Product Owner</text>

    <!-- Developer -->
    <rect x="30" y="230" width="140" height="120" fill="#c8e6c9" stroke="#388e3c" stroke-width="2" rx="8"/>
    <circle cx="100" cy="260" r="20" fill="#388e3c"/>
    <text x="100" y="310" font-size="14" font-weight="bold" text-anchor="middle" fill="#1a237e">Developer</text>

    <!-- Scrum Master -->
    <rect x="30" y="380" width="140" height="120" fill="#ffe0b2" stroke="#f57c00" stroke-width="2" rx="8"/>
    <circle cx="100" cy="410" r="20" fill="#f57c00"/>
    <text x="100" y="460" font-size="14" font-weight="bold" text-anchor="middle" fill="#1a237e">Scrum Master</text>

    <!-- Team Label -->
    <text x="100" y="530" font-size="12" font-style="italic" text-anchor="middle" fill="#555">Agile Scrum Team</text>
  </g>

  <!-- Workflow Flow (Center) -->
  <g id="workflow">
    <!-- Arrow 1: PO to Refinement -->
    <path d="M 170 140 Q 400 120 450 180" stroke="#1976d2" stroke-width="3" fill="none" marker-end="url(#arrowhead-blue)"/>
    <text x="300" y="110" font-size="11" fill="#1976d2" font-weight="bold">Writes User Story</text>

    <!-- Phase 1: Create & Refine -->
    <rect x="450" y="80" width="160" height="100" fill="#f3e5f5" stroke="#7b1fa2" stroke-width="2" rx="8"/>
    <text x="530" y="105" font-size="13" font-weight="bold" text-anchor="middle" fill="#4a148c">1. Create & Refine</text>
    <text x="530" y="125" font-size="11" text-anchor="middle" fill="#4a148c">• 3 AI Agents</text>
    <text x="530" y="140" font-size="11" text-anchor="middle" fill="#4a148c">• Multi-perspective</text>
    <text x="530" y="155" font-size="11" text-anchor="middle" fill="#4a148c">• Estimation</text>

    <!-- Arrow 2: Refine to Validate -->
    <path d="M 610 180 Q 610 210 610 240" stroke="#7b1fa2" stroke-width="3" fill="none" marker-end="url(#arrowhead-purple)"/>
    <text x="630" y="210" font-size="11" fill="#7b1fa2" font-weight="bold">Status: refined</text>

    <!-- Phase 2: Validate -->
    <rect x="450" y="240" width="160" height="100" fill="#fce4ec" stroke="#c2185b" stroke-width="2" rx="8"/>
    <text x="530" y="265" font-size="13" font-weight="bold" text-anchor="middle" fill="#880e4f">2. Validate</text>
    <text x="530" y="285" font-size="11" text-anchor="middle" fill="#880e4f">✓ 5 Criteria Check</text>
    <text x="530" y="300" font-size="11" text-anchor="middle" fill="#880e4f">✓ Execution Plan</text>
    <text x="530" y="315" font-size="11" text-anchor="middle" fill="#880e4f">✓ Ready for Dev</text>

    <!-- Arrow 3: Validate to Dev -->
    <path d="M 610 340 Q 610 370 610 400" stroke="#c2185b" stroke-width="3" fill="none" marker-end="url(#arrowhead-pink)"/>
    <text x="630" y="370" font-size="11" fill="#c2185b" font-weight="bold">Approved</text>

    <!-- Phase 3: Develop -->
    <rect x="450" y="400" width="160" height="100" fill="#e8f5e9" stroke="#388e3c" stroke-width="2" rx="8"/>
    <text x="530" y="425" font-size="13" font-weight="bold" text-anchor="middle" fill="#1b5e20">3. Develop</text>
    <text x="530" y="445" font-size="11" text-anchor="middle" fill="#1b5e20">• Follow Plan</text>
    <text x="530" y="460" font-size="11" text-anchor="middle" fill="#1b5e20">• Write Code</text>
    <text x="530" y="475" font-size="11" text-anchor="middle" fill="#1b5e20">• Run Tests</text>
  </g>

  <!-- Developer connection -->
  <path d="M 170 290 Q 400 280 450 450" stroke="#388e3c" stroke-width="2" fill="none" stroke-dasharray="5,5"/>
  <text x="300" y="360" font-size="11" fill="#388e3c" font-weight="bold">Implements</text>

  <!-- Right side: Review & Approval -->
  <g id="review-approval">
    <!-- Phase 4: Review -->
    <rect x="750" y="400" width="160" height="100" fill="#fff3e0" stroke="#f57c00" stroke-width="2" rx="8"/>
    <text x="830" y="425" font-size="13" font-weight="bold" text-anchor="middle" fill="#e65100">4. Review</text>
    <text x="830" y="445" font-size="11" text-anchor="middle" fill="#e65100">• Separate Agent</text>
    <text x="830" y="460" font-size="11" text-anchor="middle" fill="#e65100">• Fresh Perspective</text>
    <text x="830" y="475" font-size="11" text-anchor="middle" fill="#e65100">• Catch Issues</text>

    <!-- Arrow Dev to Review -->
    <path d="M 610 450 L 750 450" stroke="#388e3c" stroke-width="3" fill="none" marker-end="url(#arrowhead-green)"/>
    <text x="675" y="440" font-size="11" fill="#388e3c" font-weight="bold">submit</text>

    <!-- Phase 5: Approval -->
    <rect x="750" y="240" width="160" height="100" fill="#fff9c4" stroke="#f9a825" stroke-width="2" rx="8"/>
    <text x="830" y="265" font-size="13" font-weight="bold" text-anchor="middle" fill="#f57f17">5. Human Approval</text>
    <text x="830" y="285" font-size="11" text-anchor="middle" fill="#f57f17">👤 Final Gate</text>
    <text x="830" y="300" font-size="11" text-anchor="middle" fill="#f57f17">✓ Audit Trail</text>
    <text x="830" y="315" font-size="11" text-anchor="middle" fill="#f57f17">✓ Sign-off</text>

    <!-- Arrow Review to Approval -->
    <path d="M 830 400 Q 830 350 830 340" stroke="#f57c00" stroke-width="3" fill="none" marker-end="url(#arrowhead-orange)"/>
    <text x="750" y="370" font-size="11" fill="#f57c00" font-weight="bold">Approved?</text>

    <!-- Changes needed loop -->
    <path d="M 910 450 Q 1000 450 1000 475 Q 1000 500 900 500" stroke="#d32f2f" stroke-width="2" fill="none" stroke-dasharray="5,5" marker-end="url(#arrowhead-red)"/>
    <text x="950" y="495" font-size="10" fill="#d32f2f">Changes needed → Fix & Re-review</text>

    <!-- Scrum Master connection -->
    <path d="M 170 440 Q 500 480 750 290" stroke="#f57c00" stroke-width="2" fill="none" stroke-dasharray="5,5"/>
    <text x="400" y="460" font-size="11" fill="#f57c00" font-weight="bold">Oversees Quality</text>
  </g>

  <!-- Final Ship -->
  <g id="ship">
    <rect x="1050" y="240" width="120" height="100" fill="#c8e6c9" stroke="#1b5e20" stroke-width="3" rx="8"/>
    <text x="1110" y="275" font-size="24" text-anchor="middle">🎉</text>
    <text x="1110" y="305" font-size="13" font-weight="bold" text-anchor="middle" fill="#1b5e20">SHIPPED</text>
    <text x="1110" y="325" font-size="10" text-anchor="middle" fill="#1b5e20">with confidence</text>

    <!-- Arrow to Ship -->
    <path d="M 910 290 L 1050 290" stroke="#f9a825" stroke-width="3" fill="none" marker-end="url(#arrowhead-yellow)"/>
    <text x="970" y="280" font-size="11" fill="#f9a825" font-weight="bold">Human Gate ✓</text>
  </g>

  <!-- Bottom benefits -->
  <g id="benefits">
    <rect x="30" y="530" width="1140" height="50" fill="rgba(255,255,255,0.8)" stroke="#1976d2" stroke-width="1" rx="4"/>

    <text x="50" y="555" font-size="12" font-weight="bold" fill="#1976d2">✓ 50% fewer bugs</text>
    <text x="300" y="555" font-size="12" font-weight="bold" fill="#1976d2">✓ 3x faster specs</text>
    <text x="550" y="555" font-size="12" font-weight="bold" fill="#1976d2">✓ Zero bad merges</text>
    <text x="800" y="555" font-size="12" font-weight="bold" fill="#1976d2">✓ Complete audit trail</text>
    <text x="1090" y="555" font-size="12" font-weight="bold" fill="#1976d2">✓ No vendor lock-in</text>
  </g>

  <!-- Arrow markers -->
  <defs>
    <marker id="arrowhead-blue" markerWidth="10" markerHeight="10" refX="9" refY="3" orient="auto">
      <polygon points="0 0, 10 3, 0 6" fill="#1976d2"/>
    </marker>
    <marker id="arrowhead-purple" markerWidth="10" markerHeight="10" refX="9" refY="3" orient="auto">
      <polygon points="0 0, 10 3, 0 6" fill="#7b1fa2"/>
    </marker>
    <marker id="arrowhead-pink" markerWidth="10" markerHeight="10" refX="9" refY="3" orient="auto">
      <polygon points="0 0, 10 3, 0 6" fill="#c2185b"/>
    </marker>
    <marker id="arrowhead-green" markerWidth="10" markerHeight="10" refX="9" refY="3" orient="auto">
      <polygon points="0 0, 10 3, 0 6" fill="#388e3c"/>
    </marker>
    <marker id="arrowhead-orange" markerWidth="10" markerHeight="10" refX="9" refY="3" orient="auto">
      <polygon points="0 0, 10 3, 0 6" fill="#f57c00"/>
    </marker>
    <marker id="arrowhead-yellow" markerWidth="10" markerHeight="10" refX="9" refY="3" orient="auto">
      <polygon points="0 0, 10 3, 0 6" fill="#f9a825"/>
    </marker>
    <marker id="arrowhead-red" markerWidth="10" markerHeight="10" refX="9" refY="3" orient="auto">
      <polygon points="0 0, 10 3, 0 6" fill="#d32f2f"/>
    </marker>
  </defs>

  <!-- Legend -->
  <text x="30" y="585" font-size="10" fill="#666" font-style="italic">
    Scrum Team collaborates with AI Agents through 5 phases: Create → Refine → Validate → Develop → Review → Approve → Ship
  </text>
</svg>
